# xmcd CD database file
#
# Track frame offsets:
#	150
#	18282
#	40693
#	57958
#	78938
#	97232
#	116093
#	133556
#	153377
#	175048
#
# Disc length: 2511 seconds
#
# Revision: 0
# Processed by: cddbd v1.5.2PL0 Copyright (c) Steve Scherf et al.
# Submitted via: CDex 1.70beta2
#
DISCID=7709cd0a
DTITLE=Jack Mack and the Heart Attack Horns - Back to the Shack
DYEAR=2016
DGENRE=Blues
TTITLE0=Standin' Before the King
TTITLE1=Somethin' in the Water
TTITLE2=Don't Let Her Go
TTITLE3=Never Too Late
TTITLE4=Somebody to Trust
TTITLE5=Serves Me Right
TTITLE6=Bad Habit
TTITLE7=Change My Ways
TTITLE8=Ain't No Way
TTITLE9=Let Me In
EXTD=YEAR: 2016
EXTT0=
EXTT1=
EXTT2=
EXTT3=
EXTT4=
EXTT5=
EXTT6=
EXTT7=
EXTT8=
EXTT9=
PLAYORDER=
